<svg width="18" height="16" viewBox="0 0 18 16" fill="none" xmlns="http://www.w3.org/2000/svg">
<path d="M16.9227 13.6667C16.9227 14.0866 16.7702 14.4893 16.4987 14.7863C16.2273 15.0832 15.8591 15.25 15.4752 15.25H2.44752C2.06361 15.25 1.69543 15.0832 1.42397 14.7863C1.15251 14.4893 1 14.0866 1 13.6667V4.95833C1 4.53841 1.15251 4.13568 1.42397 3.83875C1.69543 3.54181 2.06361 3.375 2.44752 3.375H5.34255L6.79007 1H11.1326L12.5801 3.375H15.4752C15.8591 3.375 16.2273 3.54181 16.4987 3.83875C16.7702 4.13568 16.9227 4.53841 16.9227 4.95833V13.6667Z" stroke="#CF1C0A" stroke-linecap="round" stroke-linejoin="round"/>
<path d="M8.96144 12.0833C10.5603 12.0833 11.8565 10.6656 11.8565 8.91667C11.8565 7.16776 10.5603 5.75 8.96144 5.75C7.36256 5.75 6.06641 7.16776 6.06641 8.91667C6.06641 10.6656 7.36256 12.0833 8.96144 12.0833Z" stroke="#CF1C0A" stroke-linecap="round" stroke-linejoin="round"/>
</svg>
