<svg width="29" height="29" viewBox="0 0 29 29" fill="none" xmlns="http://www.w3.org/2000/svg">
<path d="M27.6189 0.167969H19.6505C19.1615 0.167969 18.7651 0.564419 18.7651 1.05335C18.7651 1.54229 19.1615 1.93874 19.6505 1.93874H25.4807L17.7682 9.64654C17.4224 9.9922 17.4224 10.5528 17.768 10.8986C17.9406 11.0719 18.1675 11.1581 18.3941 11.1581C18.6208 11.1581 18.8473 11.0719 19.0201 10.899L26.7336 3.19022V9.02121C26.7336 9.51015 27.13 9.90639 27.6189 9.90639C28.1079 9.90639 28.5043 9.51015 28.5043 9.02121V1.05335C28.5043 0.564419 28.1079 0.167969 27.6189 0.167969Z" fill="white"/>
<path d="M1.05335 9.90639C1.54229 9.90639 1.93874 9.51015 1.93874 9.02121V3.19143L9.64736 10.9033C9.82018 11.0761 10.0468 11.1627 10.2733 11.1627C10.4998 11.1627 10.7266 11.0765 10.8992 10.9035C11.2451 10.5578 11.2453 9.99726 10.8996 9.6514L3.19022 1.93874H9.02182C9.51075 1.93874 9.9072 1.54229 9.9072 1.05335C9.9072 0.564419 9.51075 0.167969 9.02182 0.167969H1.05335C0.564419 0.167969 0.167969 0.564419 0.167969 1.05335V9.02121C0.167969 9.51015 0.564419 9.90639 1.05335 9.90639Z" fill="white"/>
<path d="M9.65221 17.7681L1.93874 25.4771V19.6457C1.93874 19.1567 1.54229 18.7603 1.05335 18.7603C0.564419 18.7603 0.167969 19.1567 0.167969 19.6457V27.6135C0.167969 28.1025 0.564419 28.4989 1.05335 28.4989H9.02182C9.51075 28.4989 9.9072 28.1025 9.9072 27.6135C9.9072 27.1246 9.51075 26.7282 9.02182 26.7282H3.19163L10.9041 19.0201C11.25 18.6745 11.25 18.1139 10.9043 17.7681C10.5586 17.4224 9.99807 17.4224 9.65201 17.7679L9.65221 17.7681Z" fill="white"/>
<path d="M27.6141 18.7647C27.1252 18.7647 26.7287 19.1612 26.7287 19.6501V25.4799L19.0203 17.7681C18.6747 17.4224 18.1141 17.4224 17.768 17.7679C17.4224 18.1137 17.4224 18.6741 17.768 19.0199L25.4771 26.7326H19.6455C19.1565 26.7326 18.7601 27.1291 18.7601 27.618C18.7601 28.1069 19.1565 28.5032 19.6455 28.5032H27.6139C28.1028 28.5032 28.4993 28.1069 28.4993 27.618V19.6501C28.4993 19.1612 28.1028 18.7647 27.6139 18.7647H27.6141Z" fill="white"/>
</svg>
