<svg width="338" height="25" viewBox="0 0 338 25" fill="none" xmlns="http://www.w3.org/2000/svg">
<path d="M337.955 4.35719C337.874 4.26056 337.792 4.20786 337.702 4.15515C337.531 4.04974 337.323 3.97947 337.16 3.90041C336.808 3.75108 336.465 3.60174 336.041 3.4612C335.59 3.32065 335.174 3.16253 334.605 3.0132C334.037 2.86387 333.269 2.7321 332.294 2.64426C330.344 2.46858 328.06 2.35438 325.758 2.25775L319.601 2.03815C317.452 1.96787 315.313 1.91517 313.164 1.86246C294.142 0.316432 275.093 -0.105213 256.098 0.0265514L246.907 0.140747C235.451 0.360353 223.886 0.755645 212.267 1.26513C197.966 1.2827 183.612 1.32662 169.239 1.40568C165.276 1.38811 161.304 1.40568 157.34 1.47595C150.154 1.51988 142.968 1.57258 135.79 1.62529C89.4677 2.01179 43.5692 2.74089 0.0993082 4.16394C2.75355 5.29711 6.27447 6.1931 10.6621 6.1404C39.7594 6.15796 68.8477 5.87687 97.945 5.55185C90.0274 6.53569 82.164 7.69521 74.3818 9.0392C69.5338 9.88249 64.7219 10.7961 59.946 11.7799C42.7206 12.5617 25.7569 13.5631 9.27178 14.8456C11.4204 15.8997 14.2372 16.6903 17.7039 16.5234C26.0819 16.2599 34.4509 15.9788 42.8289 15.6977C39.6149 16.5146 36.419 17.3579 33.2502 18.2539C22.0013 19.879 10.9058 21.6095 0 23.4717C2.5459 24.2711 5.82307 24.7367 9.75929 24.1833C12.3955 23.8495 15.0317 23.5244 17.6678 23.1906C17.3699 23.2961 17.063 23.4015 16.765 23.5069C19.4012 23.8231 22.6152 23.7968 26.3438 22.7163C27.7973 22.321 29.2598 21.9345 30.7223 21.548C50.9271 19.0357 71.1498 16.6288 91.3997 14.38C92.3566 14.2746 93.3136 14.1692 94.2706 14.0638C116.642 13.4401 139.022 12.9833 161.403 12.9658C182.926 12.7374 204.449 13.4753 226.26 14.4854L234.006 14.8456C252.044 15.7416 270.064 16.8221 288.201 18.2363C290.106 18.4559 290.332 17.8762 290.865 17.3403C302.773 19.6242 314.672 22.1277 326.598 24.7718C328.855 25.3428 329.044 24.6752 329.839 24.2096C330.1 23.7353 329.469 23.094 328.71 22.9008C308.469 17.2701 287.922 12.8076 267.22 9.46085C264.259 8.9865 261.298 8.52093 258.301 8.0905C248.577 6.67624 238.728 5.47279 228.806 4.48896C243.982 4.55923 259.212 4.7437 274.569 4.9106L284.392 5.00723L318.698 5.38495L320.82 5.42009H321.37L322.273 5.40252C322.932 5.40252 323.718 5.37616 324.711 5.44644C324.774 5.44644 324.837 5.45522 324.9 5.47279C324.964 5.47279 325.045 5.5255 324.991 5.54307C324.945 5.5782 324.891 5.58699 324.837 5.60456L324.485 5.71875L323.6 5.99985L322.436 6.36L321.732 6.57082C321.434 6.65867 321.397 6.68502 320.513 6.90463C317.949 7.4756 318.102 8.16078 317.543 8.94257C317.515 9.4872 318.481 9.75073 319.339 9.55747L330.931 7.12423C332.014 6.89584 333.206 6.65867 333.838 6.40392C334.47 6.15796 335.057 5.92957 335.49 5.71875C335.896 5.51671 336.357 5.32346 336.763 5.15656C337.16 4.98087 337.512 4.84033 337.847 4.67342C337.883 4.64707 337.928 4.62072 337.964 4.56801C338.009 4.53288 338.009 4.39233 337.964 4.35719H337.955ZM93.9997 10.5413C91.0385 10.6292 88.0774 10.717 85.1252 10.8136C91.8601 9.83857 98.6131 8.9865 105.375 8.24862C120.804 6.57082 136.305 5.50793 151.833 5.04236C141.83 5.84173 131.827 6.72016 121.86 7.66886C112.543 8.56485 103.253 9.53112 94.0088 10.5501L93.9997 10.5413ZM258.228 11.7096L266.823 13.0624C268.782 13.3786 270.741 13.7124 272.691 14.0462C259.808 12.7286 246.898 11.8677 233.997 11.2441L225.98 10.8927C196.82 9.80343 166.829 9.47841 136.883 9.74194C148.998 8.62634 161.132 7.61615 173.275 6.75529C180.696 6.16675 188.135 5.68361 195.583 5.28832C216.465 6.15796 237.301 8.49458 258.237 11.7008L258.228 11.7096Z" fill="#CF1C0A"/>
</svg>
