<svg width="23" height="29" viewBox="0 0 23 29" fill="none" xmlns="http://www.w3.org/2000/svg">
<path d="M4.40108 1.01032C3.54723 1.01032 2.87259 1.50582 2.45094 1.91874C1.56547 2.78587 0.985694 4.12785 0.996235 5.26338C1.01732 7.53443 1.41789 8.82479 2.6196 10.6107C2.64068 10.652 2.6723 10.6829 2.70393 10.7242C3.12558 11.3229 3.8951 12.4481 3.44182 14.3166C2.71447 17.3825 2.64068 22.1208 6.40393 27.3338L6.45664 27.4164C6.76233 27.8397 7.00478 27.9532 7.08912 27.9739C7.13128 27.9222 7.21561 27.7364 7.22615 27.3442C7.22615 27.148 7.20507 26.7351 7.17345 26.2603C7.00478 23.7415 6.69909 19.0652 8.78627 16.8664C9.51362 16.1025 10.4518 15.7205 11.5797 15.7102C12.7076 15.7102 13.6564 16.1025 14.3837 16.8664C16.4709 19.0548 16.1652 23.7415 15.9965 26.2603C15.9649 26.7351 15.9333 27.148 15.9438 27.3442C15.9544 27.7261 16.0387 27.9119 16.0809 27.9739C16.1652 27.9532 16.4076 27.8397 16.7133 27.4164L16.766 27.3338C20.5293 22.1208 20.4555 17.3722 19.7282 14.3063C19.2749 12.4481 20.0549 11.3229 20.466 10.7139C20.4977 10.6726 20.5188 10.6313 20.5504 10.6003C21.7521 8.81447 22.1527 7.51378 22.1737 5.25305C22.1843 4.12785 21.6045 2.78587 20.719 1.90842C20.2974 1.4955 19.6227 1 18.7689 1C17.388 1 16.4287 1.37163 15.4168 1.77422C14.331 2.19746 13.2136 2.64135 11.5797 2.65167C9.93527 2.65167 8.81789 2.20778 7.73214 1.77422C6.72017 1.37163 5.76091 1 4.38 1L4.40108 1.01032Z" stroke="#1F1511" stroke-miterlimit="10"/>
</svg>
