<svg width="29" height="35" viewBox="0 0 29 35" fill="none" xmlns="http://www.w3.org/2000/svg">
<path d="M6.56188 34.9456C6.2039 34.9456 5.8556 34.8585 5.546 34.6747C4.95582 34.336 4.61719 33.7265 4.61719 33.0009V14.3086H5.5847V33.0105C5.5847 33.4943 5.82657 33.7265 6.02975 33.8426C6.34903 34.0264 6.79408 34.0264 7.11336 33.8426C7.39394 33.6781 7.53907 33.3976 7.52939 33.0202L8.37112 23.2H9.33863L10.1513 32.9719C10.19 33.6975 10.7028 33.9781 11.2059 33.9781C11.622 33.9684 12.1057 33.7072 12.1057 33.0105V14.3086H13.0732V33.0105C13.0732 34.307 12.1251 34.9262 11.235 34.9456C10.2868 34.9746 9.27091 34.3264 9.19351 33.0396L8.85488 28.9857L8.50658 33.0492C8.51625 33.7265 8.1873 34.3264 7.61647 34.6747C7.30686 34.8585 6.93921 34.9552 6.58123 34.9552L6.56188 34.9456Z" fill="#CF1C0A"/>
<path d="M26.2388 34.9464H21.4013C20.2983 34.9464 19.4082 34.0467 19.4082 32.9534V1.99307C19.4082 0.890109 20.2983 0 21.4013 0H26.2388C27.3418 0 28.2319 0.890109 28.2319 1.99307V32.9534C28.2319 34.0563 27.3321 34.9464 26.2388 34.9464ZM21.4013 0.967509C20.8401 0.967509 20.3757 1.43191 20.3757 1.99307V32.9534C20.3757 33.5242 20.8401 33.9789 21.4013 33.9789H26.2388C26.8097 33.9789 27.2644 33.5145 27.2644 32.9534V1.99307C27.2644 1.43191 26.8 0.967509 26.2388 0.967509H21.4013Z" fill="#CF1C0A"/>
<path d="M26.0554 30.9691H21.5759C21.4404 30.9691 21.334 30.8627 21.334 30.7272C21.334 30.5917 21.4404 30.4853 21.5759 30.4853H26.0554C26.1909 30.4853 26.2973 30.5917 26.2973 30.7272C26.2973 30.8627 26.1909 30.9691 26.0554 30.9691ZM22.8336 28.4536H21.5759C21.4404 28.4536 21.334 28.3471 21.334 28.2117C21.334 28.0762 21.4404 27.9698 21.5759 27.9698H22.8336C22.9691 27.9698 23.0755 28.0762 23.0755 28.2117C23.0755 28.3471 22.9691 28.4536 22.8336 28.4536ZM26.0554 25.938H21.5759C21.4404 25.938 21.334 25.8316 21.334 25.6962C21.334 25.5607 21.4404 25.4543 21.5759 25.4543H26.0554C26.1909 25.4543 26.2973 25.5607 26.2973 25.6962C26.2973 25.8316 26.1909 25.938 26.0554 25.938ZM22.8336 23.4225H21.5759C21.4404 23.4225 21.334 23.3161 21.334 23.1806C21.334 23.0452 21.4404 22.9387 21.5759 22.9387H22.8336C22.9691 22.9387 23.0755 23.0452 23.0755 23.1806C23.0755 23.3161 22.9691 23.4225 22.8336 23.4225ZM26.0554 20.907H21.5759C21.4404 20.907 21.334 20.8006 21.334 20.6651C21.334 20.5297 21.4404 20.4232 21.5759 20.4232H26.0554C26.1909 20.4232 26.2973 20.5297 26.2973 20.6651C26.2973 20.8006 26.1909 20.907 26.0554 20.907ZM22.8336 18.3915H21.5759C21.4404 18.3915 21.334 18.285 21.334 18.1496C21.334 18.0141 21.4404 17.9077 21.5759 17.9077H22.8336C22.9691 17.9077 23.0755 18.0141 23.0755 18.1496C23.0755 18.285 22.9691 18.3915 22.8336 18.3915ZM26.0554 15.8759H21.5759C21.4404 15.8759 21.334 15.7695 21.334 15.6341C21.334 15.4986 21.4404 15.3922 21.5759 15.3922H26.0554C26.1909 15.3922 26.2973 15.4986 26.2973 15.6341C26.2973 15.7695 26.1909 15.8759 26.0554 15.8759ZM22.8336 13.3604H21.5759C21.4404 13.3604 21.334 13.254 21.334 13.1185C21.334 12.9831 21.4404 12.8767 21.5759 12.8767H22.8336C22.9691 12.8767 23.0755 12.9831 23.0755 13.1185C23.0755 13.254 22.9691 13.3604 22.8336 13.3604ZM26.0554 10.8449H21.5759C21.4404 10.8449 21.334 10.7385 21.334 10.603C21.334 10.4676 21.4404 10.3611 21.5759 10.3611H26.0554C26.1909 10.3611 26.2973 10.4676 26.2973 10.603C26.2973 10.7385 26.1909 10.8449 26.0554 10.8449ZM22.8336 8.32936H21.5759C21.4404 8.32936 21.334 8.22293 21.334 8.08748C21.334 7.95203 21.4404 7.8456 21.5759 7.8456H22.8336C22.9691 7.8456 23.0755 7.95203 23.0755 8.08748C23.0755 8.22293 22.9691 8.32936 22.8336 8.32936ZM26.0554 5.81383H21.5759C21.4404 5.81383 21.334 5.70741 21.334 5.57196C21.334 5.4365 21.4404 5.33008 21.5759 5.33008H26.0554C26.1909 5.33008 26.2973 5.4365 26.2973 5.57196C26.2973 5.70741 26.1909 5.81383 26.0554 5.81383Z" fill="#CF1C0A"/>
<path d="M1.72315 21.2257C1.15231 21.2257 0.610509 20.9741 0.291231 20.5484C-0.0377221 20.1227 -0.0860976 19.5615 0.13643 19.0197C0.504083 18.1586 0.939462 16.9493 1.40387 15.6721C1.98437 14.0951 2.57455 12.46 3.06798 11.3667C3.97744 9.35431 6.26076 8.12557 8.83434 8.18363C11.4079 8.12557 13.6622 9.34464 14.5717 11.3667C15.0651 12.46 15.6553 14.0854 16.2358 15.6625C16.7002 16.9396 17.1452 18.149 17.5129 19.0197C17.8709 19.8711 17.5226 20.7129 16.6712 21.0709C15.8294 21.4192 14.7071 21.1676 14.2621 20.1227C13.4397 18.178 12.1432 14.5111 12.1239 14.4724L13.0333 14.1532C13.0333 14.1532 14.3395 17.8297 15.1522 19.755C15.3941 20.3259 15.9649 20.3259 16.2938 20.1904C16.497 20.1033 16.8163 19.8808 16.6131 19.4067C16.2358 18.5166 15.7907 17.2976 15.3263 16.0108C14.7555 14.4531 14.1653 12.8373 13.6912 11.7828C12.9463 10.1283 11.0209 9.07373 8.83434 9.17048C6.58972 9.08341 4.6934 10.1283 3.94842 11.7828C3.47434 12.8373 2.88416 14.4628 2.30365 16.0205C1.82957 17.3072 1.38452 18.5263 1.01686 19.4067C0.920112 19.6389 0.929787 19.8228 1.04589 19.9776C1.20069 20.1807 1.51997 20.3065 1.82957 20.2581C2.04242 20.2291 2.323 20.1227 2.4778 19.755C3.28084 17.8297 4.5773 14.1919 4.59665 14.1532L5.50611 14.4724C5.50611 14.4724 4.19029 18.178 3.36791 20.1227C3.11636 20.7322 2.5939 21.1289 1.95535 21.2063C1.87795 21.216 1.79087 21.2257 1.71347 21.2257H1.72315Z" fill="#CF1C0A"/>
<path d="M8.83498 8.07733C7.16119 8.07733 5.78733 6.71314 5.78733 5.03935V3.32686C5.77765 2.51415 6.08726 1.74982 6.66776 1.16932C7.24827 0.588809 8.00293 0.269531 8.81563 0.269531H8.82531C10.4991 0.269531 11.873 1.63372 11.873 3.30751V5.02C11.8923 6.70347 10.5281 8.07733 8.84466 8.08701H8.83498V8.07733ZM8.83498 1.22737C8.2835 1.22737 7.76105 1.44989 7.36437 1.84657C6.96769 2.24325 6.75484 2.76571 6.76451 3.31719V5.02968C6.77419 6.17134 7.71267 7.10982 8.85433 7.10982C10.0057 7.10982 10.9345 6.16166 10.9248 5.01033V3.29784C10.9151 2.74636 10.6926 2.2239 10.2959 1.82722C9.89924 1.44022 9.38646 1.22737 8.82531 1.22737H8.83498Z" fill="#CF1C0A"/>
</svg>
