<svg width="32" height="31" viewBox="0 0 32 31" fill="none" xmlns="http://www.w3.org/2000/svg">
<g style="mix-blend-mode:darken">
<path d="M12.2719 17.9792C12.2719 17.9792 12.3177 17.4246 11.532 16.0116C10.9676 14.9936 7.14619 11.7649 7.14619 11.7649L1.006 16.2775C1.006 16.2775 0.533089 20.433 7.98522 27.3235C8.32084 27.6273 9.0302 29.6405 10.2659 29.9292C11.5015 30.2179 12.3482 30.8712 14.8805 28.539C22.6454 21.375 31.1959 6.77369 31.1959 6.77369L23.0497 1C23.0497 1 16.7798 3.80328 14.1025 10.519C13.3627 12.3802 11.532 16.0116 11.532 16.0116" fill=""/>
<path d="M1.006 16.2775C1.006 16.2775 0.533089 20.433 7.98522 27.3235C8.32084 27.6273 9.0302 29.6329 10.2659 29.9292C11.5015 30.2179 12.3482 30.8712 14.8805 28.539C22.6454 21.375 31.1959 6.77369 31.1959 6.77369M23.0497 1C23.0497 1 16.7798 3.80328 14.1025 10.519C13.3627 12.3802 11.532 16.0116 11.532 16.0116M11.532 16.0116C10.96 14.986 7.14619 11.7649 7.14619 11.7649M11.532 16.0116C12.3177 17.4246 12.2719 17.9792 12.2719 17.9792" stroke="#1F1511" stroke-miterlimit="10" stroke-linecap="round"/>
<path d="M27.7461 4.08467L27.5707 4.32777C27.0672 5.0115 27.0596 5.77119 27.0367 6.59166C26.9757 8.88595 26.1291 11.3853 24.7332 13.2922C23.3374 15.199 21.2855 16.6728 19.1498 17.3945C18.3794 17.6528 17.6701 17.8807 17.1743 18.5645L16.9989 18.8076M26.0223 2.80078L25.8392 3.04388C25.3358 3.72761 24.634 3.95552 23.8637 4.21382C21.7279 4.92793 19.3405 6.37135 17.9523 8.28579C16.5565 10.1926 16.0378 12.73 15.9768 15.0167C15.9539 15.8448 15.9462 16.5969 15.4428 17.2806L15.2598 17.5237" stroke="#1F1511" stroke-width="0.94" stroke-linejoin="round"/>
<path d="M25.0833 6.34764C24.7782 7.38083 23.4357 9.62953 22.1619 11.3768C20.8881 13.1165 19.1566 15.0765 18.2719 15.6767M25.7774 6.93261C25.7621 8.1861 24.6104 10.5867 23.3366 12.3264C22.0628 14.0737 20.133 15.8818 18.966 16.2617M24.5265 5.83864C23.6417 6.4388 21.9102 8.39122 20.6364 10.1385C19.3626 11.8782 18.0201 14.1345 17.715 15.1677M23.8095 5.31445C22.6424 5.6943 20.7127 7.50238 19.4389 9.24968C18.1651 10.997 17.0133 13.3976 16.998 14.6435" stroke="#1F1511" stroke-width="0.94" stroke-linecap="round" stroke-linejoin="round"/>
</g>
</svg>
