<svg width="31" height="33" viewBox="0 0 31 33" fill="none" xmlns="http://www.w3.org/2000/svg">
<g style="mix-blend-mode:multiply">
<path d="M27.4571 32.2604C23.4552 27.6845 24.3892 23.1508 24.3892 23.1508C26.9772 22.195 34.8267 11.0301 25.9746 4.24662C22.9153 1.90369 18.982 1.01557 15.1515 1.52306C8.44164 2.41118 4.97961 6.89406 4.25978 10.2604C3.92558 11.8252 4.83393 12.3412 4.25978 13.7452" stroke="#1F1511" stroke-linecap="round" stroke-linejoin="round"/>
</g>
<g style="mix-blend-mode:multiply">
<path d="M12.1611 27.1111C12.1611 27.1111 13.2323 31.0696 12.5039 32.2622M4.26871 13.7217C4.26871 13.7217 4.26871 13.7471 4.26014 13.7555C3.65172 15.3203 0.883813 17.3587 1.00378 18.4076C1.08948 19.118 2.40059 19.6002 3.08614 19.8285C4.41439 20.2937 3.01759 22.1292 3.24896 22.4083C3.38607 22.569 3.49747 22.7213 3.60887 22.8566C3.87452 23.2288 3.97736 23.694 3.87452 24.1507C3.51461 25.8085 3.44606 30.1561 14.1321 26.4852" stroke="#1F1511" stroke-width="1.13" stroke-linecap="round" stroke-linejoin="round"/>
</g>
<g style="mix-blend-mode:multiply">
<path d="M21.8295 6.71751C23.8862 6.87821 25.4972 8.57832 25.4972 10.6506C25.4972 11.0397 25.4372 11.4203 25.3344 11.7755M20.2871 17.3918C20.1242 17.6625 20.0643 17.9416 20.0471 18.2292C20.0128 19.0074 20.4327 19.1765 20.7412 19.8955C20.8783 20.2169 21.2383 20.3691 21.5553 20.2423C21.881 20.1154 22.0352 19.7432 21.8981 19.4303C21.8381 19.3034 21.7953 19.1765 21.7867 19.0919C21.7524 18.7367 21.9324 18.4745 22.0781 18.2715M13.1402 15.438C12.8831 15.6071 12.5746 15.7086 12.2404 15.7255C11.2121 15.7848 10.338 14.9897 10.278 13.9662C10.2695 13.7717 10.2866 13.5856 10.3295 13.408M14.8455 6.48067C15.2483 5.46568 16.765 4.78902 18.5132 4.9159C20.467 5.05123 21.9838 6.14234 21.9409 7.36033M21.5982 18.0939C21.9067 18.263 22.1552 18.2799 22.2409 18.2884C23.372 18.3307 24.4175 16.9605 24.4603 15.734C24.4775 15.2688 24.3489 14.8966 24.2632 14.6852M24.7774 13.7717C24.6831 14.4568 24.1004 14.9981 23.372 15.032C23.0207 15.0489 22.6865 14.9474 22.4208 14.7613M24.1947 11.2004C25.223 11.4118 26.0285 12.283 26.08 13.3657C26.1399 14.4399 25.4544 15.3788 24.4603 15.7086M12.2576 7.84245C12.2061 6.99663 12.6346 6.19309 13.3544 5.77018C14.3571 5.18656 15.3854 5.65176 15.4711 5.69406M9.98668 8.83207C10.1324 7.58871 11.0836 6.59909 12.3004 6.53142C12.3947 6.53142 12.4889 6.53142 12.5832 6.53142M10.3209 14.22C9.17259 13.8816 8.30708 12.8667 8.23853 11.6233C8.15283 10.0331 9.40396 8.67982 11.0236 8.59524C11.1435 8.59524 11.2635 8.59524 11.3835 8.59524M12.9174 14.2454C12.866 15.6156 13.86 16.7828 15.154 16.9858C16.3023 17.1635 17.4763 16.546 17.999 15.4549M20.0814 17.967C19.6958 18.0008 19.2759 17.9416 18.8731 17.7724C18.1104 17.4679 17.5791 16.8674 17.4249 16.233M22.7036 11.1835C22.1637 11.2088 21.7439 11.6402 21.7353 12.1308C21.7267 12.5706 22.0352 12.9766 22.498 13.095M19.4987 14.9389C19.8415 15.2096 20.3213 15.2434 20.6813 15.0151C21.0497 14.7867 21.2297 14.3215 21.1526 13.8816M18.5218 12.7229C18.5218 12.8582 18.4532 13.7209 17.7334 14.3046C16.8679 15.0066 15.831 14.6683 15.7539 14.6429M16.8765 11.2088C16.9193 12.0716 17.6391 12.7313 18.4704 12.689C19.3102 12.6467 19.9443 11.9109 19.9014 11.0481M16.2166 13.2473C15.3682 13.2896 14.6484 12.6214 14.597 11.7502M19.7386 8.10466C19.8843 8.61215 19.6786 9.17886 19.2159 9.44952C18.7788 9.70327 18.2475 9.62715 17.8876 9.28881M22.1295 9.55102C22.5494 8.8659 23.3806 8.63753 23.989 9.04353M21.0754 8.57832C21.6239 8.54449 22.1038 8.98432 22.1295 9.55948C22.1637 10.1262 21.7353 10.6168 21.1868 10.6421M15.7367 10.4476C15.771 11.1327 15.2654 11.7079 14.6056 11.7502C13.9457 11.784 13.3801 11.2596 13.3459 10.5829M12.4032 12.4015C11.6491 12.4437 11.0064 11.8432 10.9636 11.065C10.9207 10.3292 11.4349 9.69481 12.1376 9.59331M13.8172 8.62907C14.1685 7.87629 14.8798 7.38571 15.6682 7.36879C16.1223 7.36033 16.4994 7.51258 16.7908 7.6902M16.0709 9.39031C16.1052 8.62907 16.448 7.92704 17.0393 7.47875C17.4592 7.16579 17.9048 7.04738 18.2904 7.022" stroke="#1F1511" stroke-width="0.75" stroke-linecap="round" stroke-linejoin="round"/>
</g>
</svg>
