<svg class="skeleton__icon" width="31" height="34" viewBox="0 0 31 34" fill="none" xmlns="http://www.w3.org/2000/svg">
<g style="mix-blend-mode:multiply">
<path d="M27.4571 32.4514C23.4552 27.8526 24.3892 23.2963 24.3892 23.2963C26.9772 22.3358 34.8267 11.1152 25.9746 4.29777C22.9153 1.94314 18.982 1.05059 15.1515 1.56062C8.44164 2.45317 4.97961 6.95842 4.25978 10.3416C3.92558 11.9142 4.83393 12.4327 4.25978 13.8438" stroke="#CF1C0A" stroke-linecap="round" stroke-linejoin="round"/>
</g>
<g style="mix-blend-mode:multiply">
<path d="M12.1611 27.2766C12.1611 27.2766 13.2323 31.2548 12.5039 32.4534M4.26871 13.8203C4.26871 13.8203 4.26871 13.8458 4.26014 13.8543C3.65172 15.4269 0.883813 17.4755 1.00378 18.5296C1.08948 19.2436 2.40059 19.7281 3.08614 19.9577C4.41439 20.4252 3.01759 22.2698 3.24896 22.5503C3.38607 22.7118 3.49747 22.8648 3.60887 23.0008C3.87452 23.3749 3.97736 23.8424 3.87452 24.3014C3.51461 25.9675 3.44606 30.3367 14.1321 26.6475" stroke="#CF1C0A" stroke-width="1.13" stroke-linecap="round" stroke-linejoin="round"/>
</g>
<g style="mix-blend-mode:multiply">
<path d="M21.8295 6.78102C23.8862 6.94253 25.4972 8.65112 25.4972 10.7337C25.4972 11.1248 25.4372 11.5073 25.3344 11.8643M20.2871 17.5086C20.1242 17.7806 20.0643 18.0612 20.0471 18.3502C20.0128 19.1322 20.4327 19.3022 20.7412 20.0248C20.8783 20.3478 21.2383 20.5008 21.5553 20.3733C21.881 20.2458 22.0352 19.8718 21.8981 19.5572C21.8381 19.4297 21.7953 19.3022 21.7867 19.2172C21.7524 18.8602 21.9324 18.5967 22.0781 18.3927M13.1402 15.545C12.8831 15.715 12.5746 15.817 12.2404 15.834C11.2121 15.8935 10.338 15.0945 10.278 14.0659C10.2695 13.8704 10.2866 13.6834 10.3295 13.5049M14.8455 6.543C15.2483 5.52295 16.765 4.84291 18.5132 4.97042C20.467 5.10642 21.9838 6.20299 21.9409 7.42705M21.5982 18.2142C21.9067 18.3842 22.1552 18.4012 22.2409 18.4097C23.372 18.4522 24.4175 17.0751 24.4603 15.8425C24.4775 15.375 24.3489 15.001 24.2632 14.7885M24.7774 13.8704C24.6831 14.559 24.1004 15.103 23.372 15.137C23.0207 15.154 22.6865 15.052 22.4208 14.865M24.1947 11.2863C25.223 11.4988 26.0285 12.3743 26.08 13.4624C26.1399 14.542 25.4544 15.4855 24.4603 15.817M12.2576 7.91158C12.2061 7.06153 12.6346 6.25399 13.3544 5.82896C14.3571 5.24243 15.3854 5.70996 15.4711 5.75246M9.98668 8.90614C10.1324 7.65657 11.0836 6.66201 12.3004 6.59401C12.3947 6.59401 12.4889 6.59401 12.5832 6.59401M10.3209 14.3209C9.17259 13.9809 8.30708 12.9609 8.23853 11.7113C8.15283 10.1132 9.40396 8.75313 11.0236 8.66813C11.1435 8.66813 11.2635 8.66813 11.3835 8.66813M12.9174 14.3464C12.866 15.7235 13.86 16.8966 15.154 17.1006C16.3023 17.2791 17.4763 16.6586 17.999 15.562M20.0814 18.0867C19.6958 18.1207 19.2759 18.0612 18.8731 17.8911C18.1104 17.5851 17.5791 16.9816 17.4249 16.3441M22.7036 11.2693C22.1637 11.2948 21.7439 11.7283 21.7353 12.2213C21.7267 12.6634 22.0352 13.0714 22.498 13.1904M19.4987 15.0435C19.8415 15.3155 20.3213 15.3495 20.6813 15.12C21.0497 14.8905 21.2297 14.423 21.1526 13.9809M18.5218 12.8164C18.5218 12.9524 18.4532 13.8194 17.7334 14.406C16.8679 15.1115 15.831 14.7715 15.7539 14.746M16.8765 11.2948C16.9193 12.1618 17.6391 12.8249 18.4704 12.7824C19.3102 12.7399 19.9443 12.0003 19.9014 11.1333M16.2166 13.3434C15.3682 13.3859 14.6484 12.7144 14.597 11.8388M19.7386 8.1751C19.8843 8.68513 19.6786 9.25466 19.2159 9.52667C18.7788 9.78169 18.2475 9.70518 17.8876 9.36516M22.1295 9.62868C22.5494 8.94014 23.3806 8.71063 23.989 9.11865M21.0754 8.65112C21.6239 8.61712 22.1038 9.05915 22.1295 9.63718C22.1637 10.2067 21.7353 10.6997 21.1868 10.7252M15.7367 10.5297C15.771 11.2183 15.2654 11.7963 14.6056 11.8388C13.9457 11.8728 13.3801 11.3458 13.3459 10.6657M12.4032 12.4933C11.6491 12.5358 11.0064 11.9323 10.9636 11.1503C10.9207 10.4107 11.4349 9.77319 12.1376 9.67118M13.8172 8.70213C14.1685 7.94558 14.8798 7.45256 15.6682 7.43556C16.1223 7.42706 16.4994 7.58006 16.7908 7.75857M16.0709 9.46717C16.1052 8.70213 16.448 7.99659 17.0393 7.54606C17.4592 7.23154 17.9048 7.11254 18.2904 7.08704" stroke="#CF1C0A" stroke-width="0.75" stroke-linecap="round" stroke-linejoin="round"/>
</g>
</svg>