<svg width="26" height="33" viewBox="0 0 26 33" fill="none" xmlns="http://www.w3.org/2000/svg">
<g clip-path="url(#clip0_411_24597)">
<path d="M22.7325 32.9997C22.7325 32.9997 22.6885 32.9997 22.6621 32.9997C22.3891 32.9645 22.2042 32.7093 22.2395 32.4453L24.9601 12.5045C25.2242 10.5421 24.1236 8.6677 22.2835 7.9373L4.56862 0.958902C4.31329 0.862102 4.19002 0.571702 4.28687 0.316502C4.38372 0.0613021 4.67428 -0.0618979 4.92961 0.0349021L22.6445 7.0221C24.9161 7.9197 26.2632 10.2253 25.9374 12.6453L23.2168 32.5773C23.1816 32.8237 22.9702 33.0085 22.7237 33.0085" fill="#1F1511"/>
<path d="M14.6936 32.9992C14.6232 32.9992 14.5528 32.9816 14.4911 32.9552C14.2446 32.8408 14.1301 32.5504 14.2446 32.2952C14.2446 32.2952 14.4647 31.7672 14.4559 30.6408C14.4471 29.5936 14.2358 27.7984 13.2497 25.2112C12.5277 23.3192 12.5717 21.0312 13.3729 18.5848C13.7075 17.5728 14.0949 16.7368 14.3855 16.1824C7.10406 15.7952 0.377338 13.208 0.306901 13.1816C0.0515675 13.0848 -0.071697 12.7944 0.0251537 12.5392C0.122004 12.284 0.412556 12.1608 0.66789 12.2576C0.738327 12.284 7.81723 15.0032 15.2307 15.232C15.4068 15.232 15.5741 15.3376 15.6533 15.496C15.7414 15.6544 15.7326 15.848 15.6357 15.9976C15.6005 16.0416 12.6333 20.776 14.183 24.8592C16.2256 30.2448 15.1955 32.6032 15.1515 32.7088C15.0634 32.8936 14.8873 32.9992 14.7024 32.9992" fill="#1F1511"/>
<path d="M16.8316 14.0183C16.3297 14.0183 15.8631 13.7543 15.5989 13.3231L14.9826 12.3023C14.8506 12.0823 14.6392 11.9151 14.3839 11.8359L1.65245 7.87594C1.38832 7.79674 1.24744 7.51514 1.32668 7.25994C1.40593 6.99594 1.68767 6.85514 1.94301 6.93434L14.6745 10.8855C15.1587 11.0351 15.5637 11.3607 15.8191 11.7831L16.4354 12.8039C16.5234 12.9447 16.6731 13.0239 16.8404 13.0239C17.0429 13.0239 17.2102 12.8743 17.2542 12.6807L17.4127 12.0295C17.5712 11.3871 18.1347 10.9207 18.795 10.8943L19.1912 10.8767C19.3937 10.8679 19.5786 10.7799 19.7107 10.6303C19.9924 10.3223 19.9748 9.86474 19.6843 9.58314C19.4906 9.38954 19.2088 9.31914 18.9447 9.39834C17.8881 9.70634 16.7788 9.67994 15.7398 9.30154L2.1279 4.47914C1.87257 4.39114 1.7317 4.10954 1.82855 3.84554C1.91659 3.59034 2.19834 3.44954 2.46248 3.54634L16.092 8.35994C16.9373 8.65914 17.8353 8.68554 18.6894 8.43914C19.2969 8.26314 19.9484 8.43034 20.3975 8.87034C21.0666 9.53034 21.093 10.5951 20.4591 11.2903C20.1421 11.6335 19.7107 11.8359 19.2441 11.8535L18.8478 11.8711C18.6277 11.8799 18.4428 12.0383 18.39 12.2495L18.2315 12.9095C18.0818 13.5343 17.536 13.9831 16.8932 14.0095C16.8756 14.0095 16.8492 14.0095 16.8316 14.0095" fill="#1F1511"/>
<path d="M22.3265 14.2468C22.3265 14.2468 22.2473 14.3084 22.168 14.2996L20.1606 14.238L21.7454 12.1348C21.8158 12.0468 21.9039 12.0468 21.9479 12.0468C21.9919 12.0468 22.08 12.082 22.1152 12.1876C22.3441 12.8388 22.441 13.4812 22.4058 14.0972C22.4058 14.1764 22.3617 14.2204 22.3353 14.2468M23.0573 11.862C22.9076 11.4396 22.5466 11.1316 22.1064 11.07C21.6662 10.9996 21.2259 11.1756 20.953 11.5364L19.2097 13.8596C18.4173 14.7396 19.2801 15.1796 19.5531 15.206L22.0712 15.2852C22.0712 15.2852 22.7579 15.1884 22.9781 15.0036C23.2334 14.7924 23.3831 14.4844 23.4007 14.1588C23.4447 13.4108 23.3302 12.6452 23.0573 11.8708" fill="#1F1511"/>
<path d="M19.6018 32.9996C19.6018 32.9996 19.5754 32.9996 19.5577 32.9996C19.2848 32.982 19.0823 32.7356 19.1087 32.4628L20.1917 19.1572C20.2093 18.9548 20.3414 18.7876 20.5351 18.726L21.4155 18.4444C21.7237 18.3476 21.935 18.0748 21.9702 17.758C21.9966 17.5292 21.9262 17.3092 21.7765 17.1332L21.7413 17.0892C21.5124 16.8252 21.1514 16.7372 20.8256 16.8604C20.0332 17.1684 19.1439 17.1244 18.3867 16.7284H18.3691C18.2106 16.6404 18.0345 16.6316 17.8849 16.7108C17.7264 16.7812 17.6207 16.922 17.5855 17.098C17.5591 17.2564 17.5943 17.4148 17.6912 17.538L18.6773 18.77C18.7565 18.8668 18.7917 18.99 18.7829 19.1132L17.7616 32.5244C17.744 32.7972 17.5063 32.9996 17.2333 32.982C16.9604 32.9644 16.7579 32.7268 16.7755 32.454L17.7792 19.2364L16.9076 18.154C16.6258 17.802 16.5113 17.3532 16.5994 16.9044C16.6874 16.4204 16.9956 16.0244 17.4358 15.8132C17.8761 15.602 18.3779 15.6108 18.8094 15.8308H18.827C19.3288 16.1036 19.9187 16.1388 20.447 15.9276C21.1602 15.646 21.9702 15.8484 22.4721 16.4292L22.5073 16.4732C22.8331 16.8516 22.9915 17.3532 22.9387 17.8548C22.8595 18.5588 22.3752 19.1572 21.7061 19.3684L21.1426 19.5532L20.086 32.5244C20.0684 32.7796 19.8483 32.982 19.593 32.982" fill="#1F1511"/>
<path d="M22.331 14.2469C22.331 14.2469 22.2517 14.3085 22.1637 14.2997L20.1562 14.2381L21.7411 12.1349C21.8115 12.0469 21.8996 12.0469 21.9436 12.0469C21.9876 12.0469 22.0757 12.0821 22.1109 12.1877C22.3398 12.8389 22.4366 13.4813 22.4014 14.0973C22.4014 14.1765 22.3574 14.2205 22.331 14.2469Z" fill="white"/>
</g>
<defs>
<clipPath id="clip0_411_24597">
<rect width="26" height="33" fill="white"/>
</clipPath>
</defs>
</svg>
