<svg width="33" height="33" viewBox="0 0 33 33" fill="none" xmlns="http://www.w3.org/2000/svg">
<path d="M24.7239 0H24.4627C21.8794 0 19.7799 2.0995 19.7799 4.68275C19.7799 6.03726 20.3507 7.29502 21.3569 8.18513H18.2609C18.2609 8.18513 18.2416 8.18513 18.2319 8.18513C17.9707 8.18513 17.7578 8.39798 17.7578 8.65921C17.7578 8.92044 17.9707 9.13329 18.2319 9.13329H21.4924C21.4537 9.29776 21.415 9.45257 21.386 9.60737H18.2319C17.9707 9.60737 17.7578 9.82022 17.7578 10.0814C17.7578 10.3427 17.9707 10.5555 18.2319 10.5555C18.2319 10.5555 18.2319 10.5555 18.2416 10.5555H21.2795C21.2795 10.5555 21.2795 10.5846 21.2795 10.6039L20.6023 11.0199C19.1123 11.9391 18.2319 13.5258 18.2319 15.277V31.9085C18.2319 32.1697 18.4447 32.3825 18.706 32.3825C18.9672 32.3825 19.1801 32.1697 19.1801 31.9085V16.438C19.1801 15.5479 19.9057 14.8222 20.7958 14.8222H20.8055C20.5249 15.3931 20.3798 16.022 20.3991 16.6508C20.4475 18.7697 22.2471 20.5015 24.4143 20.5015H24.5207C28.9132 20.5015 32.4833 15.8962 32.4833 10.2459C32.4833 4.59567 29.0099 0.145126 24.7239 0ZM21.5117 13.9999H20.7861C20.1282 13.9999 19.538 14.2611 19.1026 14.6771C19.2768 13.4677 19.9734 12.3938 21.0377 11.7359L21.4053 11.5134C21.4634 12.2583 21.6182 12.9743 21.8794 13.6516C21.744 13.758 21.6278 13.8741 21.5117 13.9999Z" fill="#CF1C0A"/>
<path d="M14.9017 9.13329C15.1629 9.13329 15.3758 8.92044 15.3758 8.65921C15.3758 8.39798 15.1629 8.18513 14.9017 8.18513C14.892 8.18513 14.8824 8.18513 14.8727 8.18513H11.7767C12.7829 7.29502 13.3537 6.03726 13.3537 4.68275C13.3537 2.0995 11.2542 0 8.67095 0H8.40973C4.11398 0.145126 0.640625 4.71177 0.640625 10.2556C0.640625 15.7994 4.21073 20.5112 8.60323 20.5112H8.70965C10.8769 20.5112 12.6764 18.789 12.7248 16.6605C12.7345 16.0316 12.599 15.4027 12.3185 14.8319H12.3281C13.2182 14.8319 13.9439 15.5576 13.9439 16.4477V31.9085C13.9439 32.1697 14.1567 32.3825 14.418 32.3825C14.6792 32.3825 14.892 32.1697 14.892 31.9085V15.2866C14.892 13.5355 14.0019 11.9487 12.5216 11.0296L11.8444 10.6136C11.8444 10.6136 11.8444 10.5749 11.8444 10.5652H14.8824C14.8824 10.5652 14.8824 10.5652 14.892 10.5652C15.1533 10.5652 15.3661 10.3524 15.3661 10.0911C15.3661 9.8299 15.1533 9.61704 14.892 9.61704H11.738C11.7089 9.46224 11.6799 9.30744 11.6315 9.14296H14.892L14.9017 9.13329ZM11.7186 11.5037L12.0863 11.7262C13.1505 12.3841 13.8471 13.4581 14.0213 14.6674C13.5859 14.2514 12.986 13.9902 12.3378 13.9902H11.6122C11.4961 13.8644 11.3703 13.7483 11.2445 13.6419C11.5058 12.9646 11.6702 12.2487 11.7186 11.5037Z" fill="#CF1C0A"/>
<path d="M10.1802 15.5285C10.1125 15.6156 10.0158 15.6736 9.89966 15.6736C9.70616 15.6736 9.55136 15.5188 9.55136 15.3253C9.55136 15.2382 9.59006 15.1608 9.63844 15.1028H9.61909C10.5382 13.9031 11.0316 12.4712 11.0316 10.9619C11.0316 9.45254 10.5479 8.0303 9.61909 6.84026H9.63844C9.59006 6.76286 9.55136 6.68546 9.55136 6.59839C9.55136 6.40488 9.70616 6.25008 9.89966 6.25008C10.0158 6.25008 10.1125 6.30813 10.1802 6.40488C10.5092 6.82091 10.7801 7.26597 11.0026 7.74005C11.9508 7.01442 12.5119 5.90178 12.5119 4.68272C12.5119 2.5542 10.7801 0.832031 8.66125 0.832031H8.6032C4.66544 0.832031 1.47266 5.06005 1.47266 10.2556C1.47266 15.4511 4.67511 19.6791 8.6032 19.6791H8.7193C10.4415 19.6791 11.8637 18.3149 11.9024 16.6411C11.9218 15.7607 11.5735 14.9286 10.9446 14.3288C10.7317 14.7448 10.4802 15.1512 10.1899 15.5285H10.1802Z" fill="#f5f5f3"/>
<path d="M24.5103 0.832031H24.4523C22.3237 0.832031 20.6016 2.56387 20.6016 4.68272C20.6016 5.90178 21.1627 7.01442 22.1109 7.74005C22.3334 7.27564 22.6043 6.82091 22.9333 6.40488C22.9913 6.31781 23.0977 6.25976 23.2138 6.25976C23.4073 6.25976 23.5621 6.41456 23.5621 6.60806C23.5621 6.69514 23.5234 6.77254 23.4751 6.83059H23.4847C22.5656 8.0303 22.0722 9.45254 22.0722 10.9619C22.0722 12.4712 22.5559 13.9031 23.4847 15.0834H23.4751C23.5234 15.1512 23.5621 15.2286 23.5621 15.3156C23.5621 15.5091 23.4073 15.6639 23.2138 15.6639C23.0977 15.6639 23.001 15.6059 22.9333 15.5091H22.9236C22.6333 15.1415 22.3818 14.7351 22.1689 14.3191C21.54 14.919 21.1917 15.7607 21.2111 16.6315C21.2498 18.3053 22.6817 19.6694 24.3942 19.6694H24.5103C28.4384 19.6694 31.6408 15.4414 31.6408 10.2459C31.6408 5.05037 28.4481 0.832031 24.5103 0.832031Z" fill="#f5f5f3"/>
<path d="M24.7891 2.25455C24.7891 2.06105 24.6343 1.91593 24.4505 1.90625C22.9122 1.90625 21.6641 3.14466 21.6641 4.683C21.6641 4.8765 21.8189 5.0313 22.0124 5.0313C22.2059 5.0313 22.3607 4.8765 22.3607 4.683H22.38C22.38 3.54134 23.3088 2.61253 24.4505 2.61253C24.644 2.59318 24.7891 2.44806 24.7891 2.25455Z" fill="#CF1C0A"/>
</svg>
