<svg width="27" height="32" viewBox="0 0 27 32" fill="none" xmlns="http://www.w3.org/2000/svg">
<path d="M25.5359 28.8121C25.5359 28.8121 25.3139 30.0382 24.3233 30.6338C23.5548 31.1067 22.4874 31.1067 21.1468 30.6425L16.4076 29.3288C16.4076 29.3288 15.6818 29.0749 15.2719 28.1553C14.7425 26.9642 14.9559 25.1513 15.8782 22.9268C16.16 22.2437 16.3905 21.508 16.5869 20.7636C16.8175 21.0876 17.048 21.4379 17.2786 21.797C17.3127 21.9109 17.8336 23.7413 16.8687 26.176C16.7662 26.4387 16.8858 26.7277 17.142 26.8328C17.2017 26.8591 17.2615 26.8679 17.3298 26.8679C17.5262 26.8679 17.7055 26.7452 17.7824 26.5526C18.1923 25.5104 18.363 24.5733 18.4143 23.7938C19.0803 25.1075 19.6525 26.5701 20.0111 28.164C20.0623 28.4005 20.2673 28.5581 20.4893 28.5581C20.5234 28.5581 20.5661 28.5581 20.6003 28.5494C20.865 28.4881 21.0272 28.2166 20.9675 27.9451C19.3707 20.8774 14.0166 16.3146 13.7946 16.1306C13.7776 16.1219 13.7605 16.1131 13.7519 16.1044C13.7263 16.0869 13.7007 16.0693 13.6665 16.0606C13.6324 16.0518 13.6068 16.0431 13.5726 16.0343C13.5385 16.0343 13.5128 16.0255 13.4787 16.0255C13.4445 16.0255 13.4189 16.0255 13.3848 16.0343C13.3506 16.0343 13.325 16.0518 13.2908 16.0606C13.2567 16.0693 13.231 16.0869 13.2054 16.1044C13.1884 16.1131 13.1713 16.1131 13.1627 16.1306C12.9322 16.3233 7.58671 20.8774 5.9899 27.9451C5.93012 28.2166 6.09236 28.4881 6.35708 28.5494C6.39123 28.5494 6.43393 28.5581 6.46808 28.5581C6.6901 28.5581 6.89504 28.4005 6.94627 28.164C7.30492 26.5701 7.87704 25.1075 8.54309 23.7938C8.59432 24.582 8.7651 25.5191 9.17498 26.5526C9.25183 26.754 9.43969 26.8679 9.63609 26.8679C9.69586 26.8679 9.76418 26.8591 9.82395 26.8328C10.0801 26.7277 10.1997 26.43 10.0972 26.176C9.14082 23.7413 9.65317 21.9021 9.68732 21.797C9.91788 21.4379 10.1484 21.0876 10.379 20.7636C10.5839 21.5168 10.8059 22.2437 11.0877 22.9268C12.01 25.1513 12.2234 26.9642 11.694 28.1553C11.2927 29.0749 10.5925 29.3201 10.5839 29.3201L5.7935 30.6513C4.47848 31.1067 3.41963 31.0979 2.64257 30.6338C1.65203 30.0295 1.43002 28.8209 1.42148 28.7858C-0.935313 17.5845 6.63033 9.15058 6.68156 9.09803C6.74134 9.03672 8.24422 7.66173 9.30307 8.69516C10.4729 9.83369 9.99473 11.6466 9.98619 11.6991C9.96912 11.7867 9.55924 13.8536 9.73002 16.6999C8.5687 17.9698 7.20245 19.6688 6.10944 21.5693C5.83619 21.7883 4.43578 22.8392 3.18907 22.5765C2.92436 22.5239 2.65965 22.6991 2.60841 22.9706C2.54864 23.2421 2.72796 23.5136 2.99267 23.5661C3.19761 23.6099 3.40255 23.6274 3.59895 23.6274C4.18815 23.6274 4.76026 23.461 5.26407 23.2421C5.05913 23.6887 4.87127 24.1441 4.71757 24.6171C4.63218 24.8798 4.7688 25.1688 5.02498 25.2564C5.07621 25.2739 5.12745 25.2827 5.18722 25.2827C5.39216 25.2827 5.58002 25.1513 5.65687 24.9411C7.39885 19.7214 12.8126 15.0797 12.8639 15.0271C12.9749 14.9308 13.0432 14.7907 13.0432 14.6418V1.36478C13.0432 1.28596 13.0176 1.20714 12.9834 1.13708C12.9834 1.13708 13.0603 1.05825 13.0944 1.02322C13.12 1.00571 13.1457 0.988191 13.1627 0.979433C13.1884 0.961918 13.214 0.95316 13.2396 0.935644C13.2908 0.918128 13.3421 0.900612 13.3933 0.891854C13.4189 0.891854 13.4531 0.891854 13.4787 0.891854C13.5043 0.891854 13.5299 0.891854 13.547 0.891854C13.6068 0.900612 13.658 0.918128 13.7178 0.935644C13.7434 0.95316 13.769 0.961918 13.7946 0.979433C13.8117 0.988191 13.8373 1.00571 13.8544 1.01447C13.8544 1.01447 13.8629 1.01447 13.8715 1.02322C13.9056 1.05825 13.9483 1.09329 13.974 1.12832C13.974 1.12832 13.9825 1.13708 13.991 1.14583C13.991 1.14583 13.991 1.14583 13.991 1.16335C13.9569 1.22466 13.9398 1.30348 13.9398 1.3823V14.6506C13.9398 14.7994 14.0081 14.9396 14.1191 15.0359C14.1704 15.0797 19.5841 19.7214 21.3261 24.9499C21.3944 25.1601 21.5908 25.2914 21.7958 25.2914C21.847 25.2914 21.8982 25.2827 21.958 25.2652C22.2142 25.1776 22.3508 24.8886 22.2654 24.6258C22.1117 24.1617 21.9239 23.7062 21.7189 23.2508C22.2142 23.4698 22.7863 23.6362 23.384 23.6362C23.589 23.6362 23.7854 23.6187 23.9903 23.5749C24.255 23.5223 24.4258 23.2508 24.3746 22.9793C24.3233 22.7078 24.0586 22.5327 23.7939 22.5852C22.5472 22.848 21.1468 21.797 20.8735 21.5781C19.7805 19.6688 18.4143 17.9786 17.253 16.7087C17.4237 13.8711 17.0139 11.7955 16.9883 11.6729C16.9883 11.6553 16.5015 9.84245 17.6799 8.70392C18.7388 7.67924 20.2416 9.05424 20.2758 9.08051C20.3527 9.16809 27.9183 17.5845 25.5444 28.8209M20.9675 8.36236C20.199 7.63546 18.3887 6.62829 17.0053 7.96826C15.3914 9.53592 16.0148 11.848 16.0404 11.9093C16.0404 11.9268 16.3478 13.4945 16.3137 15.7103C15.6903 15.0884 15.2036 14.633 14.9474 14.4141V1.36478C14.9474 1.36478 14.9389 1.32099 14.9303 1.29472C14.9303 1.20714 14.9303 1.11956 14.8962 1.02322C14.8364 0.830549 14.7254 0.65539 14.5888 0.506506C14.3326 0.217494 13.974 0.0510937 13.5982 0.00730406C12.8724 -0.0715173 12.1551 0.497748 12.0185 1.22466C12.0014 1.31223 12.0185 1.39981 12.0441 1.47864V14.3966C11.7879 14.6243 11.3012 15.0709 10.6779 15.6927C10.6437 13.4857 10.9426 11.9268 10.9426 11.9268C10.9682 11.8305 11.5915 9.50965 9.98619 7.94198C8.60286 6.60202 6.79257 7.61794 5.99843 8.36236C5.92158 8.44994 -2.0027 17.2604 0.482177 28.9698C0.490716 29.0398 0.763968 30.6338 2.15584 31.492C2.71088 31.8336 3.34277 32 4.06006 32C4.68341 32 5.36654 31.8686 6.1009 31.6146L10.8828 30.2922C10.9255 30.2747 12.01 29.9244 12.6077 28.6107C13.2823 27.1306 13.0859 25.0812 12.027 22.5327C11.6684 21.6656 11.3866 20.7285 11.1646 19.7564C12.1637 18.4865 13.0603 17.602 13.5043 17.1816C13.9569 17.602 14.8449 18.4865 15.844 19.7564C15.6305 20.7285 15.3402 21.6656 14.9816 22.5327C13.9227 25.0812 13.7263 27.1306 14.4009 28.6107C14.9986 29.9331 16.0746 30.2834 16.1429 30.301L20.8735 31.6059C21.625 31.8686 22.3166 32 22.9485 32C23.6658 32 24.3063 31.8336 24.8528 31.492C26.2361 30.6425 26.5093 29.0398 26.5179 28.996C29.0028 17.2692 21.0785 8.4587 20.976 8.34485" fill="#1F1511"/>
</svg>
