<svg width="30" height="30" viewBox="0 0 30 30" fill="none" xmlns="http://www.w3.org/2000/svg">
<g clip-path="url(#clip0_411_21471)">
<path d="M4.17234 29.1594C4.01234 29.1594 3.85234 29.1394 3.68234 29.1094C3.07234 28.9694 2.69234 28.3594 2.82234 27.7494L3.45234 24.9094C3.66234 23.9794 4.58234 23.3994 5.51234 23.5994L10.6523 24.7394V17.3894C10.6523 11.6894 14.4223 7.85938 17.9423 7.85938C19.4923 7.85938 20.7423 9.11937 20.7423 10.6594C20.7423 11.1094 20.6423 11.5594 20.4523 11.9694L19.3423 14.3494L20.9323 16.3394C21.1723 16.6394 21.3023 17.0094 21.3023 17.3894C21.3023 18.3194 20.5423 19.0694 19.6223 19.0694C19.1023 19.0694 18.6323 18.8394 18.3023 18.4394L16.0623 15.6394C15.8223 15.3394 15.6923 14.9694 15.6923 14.5894C15.6923 14.3994 15.7223 14.2194 15.7823 14.0494L16.9623 10.6694L18.0223 11.0394L16.8423 14.4194C16.8223 14.4694 16.8123 14.5294 16.8123 14.5994C16.8123 14.7594 16.8823 14.8794 16.9323 14.9494L19.1723 17.7494C19.2823 17.8794 19.4423 17.9594 19.6123 17.9594C19.9223 17.9594 20.1723 17.7094 20.1723 17.3994C20.1723 17.2394 20.1023 17.1194 20.0523 17.0494L18.0223 14.5194L19.4223 11.5094C19.5423 11.2494 19.6023 10.9594 19.6023 10.6794C19.6023 9.74938 18.8423 8.99937 17.9223 8.99937C14.9423 8.99937 11.7523 12.3794 11.7523 17.4094V26.1594L5.25234 24.7194C4.93234 24.6494 4.60234 24.8494 4.53234 25.1794L3.90234 28.0194C4.35234 28.1394 4.81234 27.9494 5.05234 27.5594L5.64234 26.5294L12.4623 28.0394C12.5523 28.0594 12.6423 28.0694 12.7323 28.0694C13.4323 28.0694 13.9923 27.4994 13.9923 26.8094V18.5394H15.1123V26.8094C15.1123 28.1294 14.0423 29.1894 12.7323 29.1894C12.5623 29.1894 12.3823 29.1694 12.2123 29.1294L6.20234 27.7994L6.02234 28.1194C5.62234 28.7894 4.90234 29.1894 4.15234 29.1894" fill="black"/>
<path d="M21.3117 11.22C20.8017 11.22 20.3117 11.08 19.8817 10.83L20.4517 9.87C21.0917 10.25 21.9617 10.14 22.5017 9.61L23.6217 8.49C23.9417 8.17 24.1117 7.75 24.1117 7.3C24.1117 6.37 23.3517 5.62 22.4317 5.62C21.9817 5.62 21.5617 5.79 21.2417 6.11L20.1217 7.23C19.8017 7.55 19.6317 7.97 19.6317 8.42C19.6317 8.5 19.6317 8.58 19.6517 8.66L18.5417 8.81C18.5217 8.68 18.5117 8.55 18.5117 8.42C18.5117 7.67 18.8017 6.97 19.3317 6.44L20.4517 5.32C20.9817 4.79 21.6817 4.5 22.4317 4.5C23.9817 4.5 25.2317 5.76 25.2317 7.3C25.2317 8.05 24.9417 8.75 24.4117 9.28L23.2917 10.4C22.7617 10.93 22.0617 11.22 21.3117 11.22Z" fill="black"/>
<path d="M4.1725 28.0391H0.5625V29.1591H4.1725V28.0391Z" fill="black"/>
<path d="M27.4678 28.0391H16.2578V29.1591H27.4678V28.0391Z" fill="black"/>
<path d="M29.7216 28.0391H28.6016V29.1591H29.7216V28.0391Z" fill="black"/>
<path d="M22.9919 29.1594H20.1919C19.2619 29.1594 18.5119 28.4094 18.5119 27.4794V22.2894L14.4219 21.0694L14.7419 19.9994L19.6319 21.4594V27.4894C19.6319 27.7994 19.8819 28.0494 20.1919 28.0494H22.9919C22.9919 27.6194 22.7219 27.2394 22.3119 27.0994L21.3119 26.7694V20.8794C21.3119 20.3494 20.9919 19.8594 20.5119 19.6394L18.8419 18.8794L19.3019 17.8594L20.9719 18.6194C21.8619 19.0194 22.4319 19.9094 22.4319 20.8794V25.9694L22.6619 26.0494C23.5319 26.3394 24.1119 27.1494 24.1119 28.0694C24.1119 28.6794 23.6019 29.1794 22.9919 29.1794" fill="black"/>
<path d="M22.4325 1.67969H21.3125V2.79969H22.4325V1.67969Z" fill="black"/>
<path d="M20.1903 0.560547H19.0703V1.68055H20.1903V0.560547Z" fill="black"/>
<path d="M12.3309 8.41016H11.2109V9.53016H12.3309V8.41016Z" fill="black"/>
<path d="M11.7684 6.16992H10.6484V7.28992H11.7684V6.16992Z" fill="black"/>
<path d="M13.4598 1.67969H12.3398V2.79969H13.4598V1.67969Z" fill="black"/>
<path d="M15.6981 0.560547H14.5781V1.68055H15.6981V0.560547Z" fill="black"/>
<path d="M12.3309 3.92969H11.2109V5.04969H12.3309V3.92969Z" fill="black"/>
<path d="M17.9403 0H16.8203V1.12H17.9403V0Z" fill="black"/>
<path d="M4.47938 10.0898H3.35938V11.2098H4.47938V10.0898Z" fill="black"/>
<path d="M6.72937 11.2207H5.60938V12.3407H6.72937V11.2207Z" fill="black"/>
<path d="M1.12 13.4609H0V14.5809H1.12V13.4609Z" fill="black"/>
<path d="M7.85047 13.4609H6.73047V14.5809H7.85047V13.4609Z" fill="black"/>
<path d="M4.47938 16.8203H3.35938V17.9403H4.47938V16.8203Z" fill="black"/>
<path d="M2.23719 15.6992H1.11719V16.8192H2.23719V15.6992Z" fill="black"/>
<path d="M6.72937 15.6992H5.60938V16.8192H6.72937V15.6992Z" fill="black"/>
<path d="M2.23719 11.2207H1.11719V12.3407H2.23719V11.2207Z" fill="black"/>
<path d="M5.60047 1.11914H4.48047V2.23914H5.60047V1.11914Z" fill="black"/>
<path d="M5.60047 4.49023H4.48047V5.61023H5.60047V4.49023Z" fill="black"/>
<path d="M7.29187 2.80078H6.17188V3.92078H7.29187V2.80078Z" fill="black"/>
<path d="M3.92078 2.80078H2.80078V3.92078H3.92078V2.80078Z" fill="black"/>
<path d="M26.9119 19.6309H24.6719V20.7509H26.9119V19.6309Z" fill="black"/>
<path d="M24.5942 14.4234L22.8477 16.1699L23.6396 16.9619L25.3862 15.2153L24.5942 14.4234Z" fill="black"/>
<path d="M19.4375 11.4896L18.0375 14.5096L20.0675 17.0396C20.1275 17.1096 20.1875 17.2296 20.1875 17.3896C20.1875 17.6996 19.9375 17.9496 19.6275 17.9496C19.5475 17.9496 19.4775 17.9296 19.4175 17.8996L19.3675 17.8796C19.2975 17.8396 19.2375 17.7996 19.1875 17.7396L16.9475 14.9396C16.8875 14.8696 16.8275 14.7496 16.8275 14.5896C16.8275 14.5296 16.8375 14.4696 16.8575 14.4096L18.0375 11.0296L16.9775 10.6596L15.7975 14.0396C15.7375 14.2096 15.7075 14.3996 15.7075 14.5796C15.7075 14.9596 15.8375 15.3296 16.0775 15.6296L18.3175 18.4296C18.4575 18.6096 18.6475 18.7496 18.8375 18.8596L18.8575 18.8696C18.8975 18.8896 18.9375 18.9096 18.9775 18.9196L20.5175 19.6196C21.0075 19.8396 21.3175 20.3296 21.3175 20.8596V26.7496L22.3175 27.0796C22.7275 27.2196 22.9975 27.5996 22.9975 28.0296H20.1975C19.8875 28.0296 19.6375 27.7796 19.6375 27.4696V21.4496L15.1475 20.1096V18.5096H14.0275V26.7796C14.0275 27.4796 13.4575 28.0396 12.7675 28.0396C12.6775 28.0396 12.5875 28.0296 12.4975 28.0096L5.6775 26.4996L5.0875 27.5296C4.8475 27.9196 4.3875 28.1196 3.9375 27.9896L4.5675 25.1496C4.6375 24.8196 4.9675 24.6196 5.2875 24.6896L11.7875 26.1296V17.3796C11.7875 12.3496 14.9775 8.96961 17.9575 8.96961C18.8875 8.96961 19.6375 9.71961 19.6375 10.6496C19.6375 10.9396 19.5775 11.2196 19.4575 11.4796M19.6375 8.39961C19.6375 7.94961 19.8075 7.52961 20.1275 7.20961L21.2475 6.08961C21.5675 5.76961 21.9875 5.59961 22.4375 5.59961C23.3675 5.59961 24.1175 6.35961 24.1175 7.27961C24.1175 7.72961 23.9375 8.14961 23.6275 8.46961L22.5075 9.58961C22.0275 10.0696 21.2675 10.1896 20.6475 9.91961C20.4875 9.30961 20.1275 8.78961 19.6375 8.40961C19.6375 8.40961 19.6375 8.39961 19.6375 8.38961" fill="white"/>
</g>
<defs>
<clipPath id="clip0_411_21471">
<rect width="29.72" height="29.16" fill="white"/>
</clipPath>
</defs>
</svg>
