<svg width="30" height="30" viewBox="0 0 30 30" fill="none" xmlns="http://www.w3.org/2000/svg">
<g clip-path="url(#clip0_411_24939)">
<path d="M4.17234 29.8324C4.01234 29.8324 3.85234 29.8125 3.68234 29.7826C3.07234 29.6433 2.69234 29.0364 2.82234 28.4294L3.45234 25.6035C3.66234 24.6781 4.58234 24.101 5.51234 24.3L10.6523 25.4343V18.1208C10.6523 12.4492 14.4223 8.63818 17.9423 8.63818C19.4923 8.63818 20.7423 9.89192 20.7423 11.4243C20.7423 11.872 20.6423 12.3198 20.4523 12.7278L19.3423 15.0959L20.9323 17.0761C21.1723 17.3746 21.3023 17.7427 21.3023 18.1208C21.3023 19.0462 20.5423 19.7925 19.6223 19.7925C19.1023 19.7925 18.6323 19.5636 18.3023 19.1656L16.0623 16.3795C15.8223 16.081 15.6923 15.7129 15.6923 15.3348C15.6923 15.1457 15.7223 14.9666 15.7823 14.7974L16.9623 11.4342L18.0223 11.8024L16.8423 15.1656C16.8223 15.2153 16.8123 15.2751 16.8123 15.3447C16.8123 15.5039 16.8823 15.6233 16.9323 15.693L19.1723 18.4791C19.2823 18.6084 19.4423 18.688 19.6123 18.688C19.9223 18.688 20.1723 18.4393 20.1723 18.1308C20.1723 17.9716 20.1023 17.8522 20.0523 17.7825L18.0223 15.2651L19.4223 12.2701C19.5423 12.0113 19.6023 11.7228 19.6023 11.4442C19.6023 10.5188 18.8423 9.77252 17.9223 9.77252C14.9423 9.77252 11.7523 13.1357 11.7523 18.1407V26.8473L5.25234 25.4144C4.93234 25.3448 4.60234 25.5438 4.53234 25.8721L3.90234 28.698C4.35234 28.8174 4.81234 28.6284 5.05234 28.2403L5.64234 27.2154L12.4623 28.7179C12.5523 28.7378 12.6423 28.7478 12.7323 28.7478C13.4323 28.7478 13.9923 28.1806 13.9923 27.4941V19.2651H15.1123V27.4941C15.1123 28.8075 14.0423 29.8622 12.7323 29.8622C12.5623 29.8622 12.3823 29.8423 12.2123 29.8025L6.20234 28.4791L6.02234 28.7975C5.62234 29.4642 4.90234 29.8622 4.15234 29.8622" fill="#CF1C0A"/>
<path d="M21.3117 11.982C20.8017 11.982 20.3117 11.8427 19.8817 11.594L20.4517 10.6387C21.0917 11.0168 21.9617 10.9074 22.5017 10.38L23.6217 9.26559C23.9417 8.94718 24.1117 8.52927 24.1117 8.0815C24.1117 7.15612 23.3517 6.40985 22.4317 6.40985C21.9817 6.40985 21.5617 6.579 21.2417 6.89741L20.1217 8.01185C19.8017 8.33026 19.6317 8.74817 19.6317 9.19594C19.6317 9.27554 19.6317 9.35514 19.6517 9.43475L18.5417 9.584C18.5217 9.45465 18.5117 9.32529 18.5117 9.19594C18.5117 8.44966 18.8017 7.75314 19.3317 7.22577L20.4517 6.11134C20.9817 5.58397 21.6817 5.29541 22.4317 5.29541C23.9817 5.29541 25.2317 6.54915 25.2317 8.0815C25.2317 8.82778 24.9417 9.5243 24.4117 10.0517L23.2917 11.1661C22.7617 11.6935 22.0617 11.982 21.3117 11.982Z" fill="#CF1C0A"/>
<path d="M4.1725 28.7178H0.5625V29.8322H4.1725V28.7178Z" fill="#CF1C0A"/>
<path d="M27.4678 28.7178H16.2578V29.8322H27.4678V28.7178Z" fill="#CF1C0A"/>
<path d="M29.7216 28.7178H28.6016V29.8322H29.7216V28.7178Z" fill="#CF1C0A"/>
<path d="M22.9919 29.8325H20.1919C19.2619 29.8325 18.5119 29.0862 18.5119 28.1608V22.9966L14.4219 21.7827L14.7419 20.718L19.6319 22.1707V28.1708C19.6319 28.4792 19.8819 28.728 20.1919 28.728H22.9919C22.9919 28.3001 22.7219 27.922 22.3119 27.7827L21.3119 27.4544V21.5936C21.3119 21.0663 20.9919 20.5787 20.5119 20.3598L18.8419 19.6036L19.3019 18.5886L20.9719 19.3448C21.8619 19.7429 22.4319 20.6284 22.4319 21.5936V26.6583L22.6619 26.7379C23.5319 27.0265 24.1119 27.8325 24.1119 28.7479C24.1119 29.3549 23.6019 29.8524 22.9919 29.8524" fill="#CF1C0A"/>
<path d="M22.4325 2.48926H21.3125V3.60369H22.4325V2.48926Z" fill="#CF1C0A"/>
<path d="M20.1903 1.37573H19.0703V2.49017H20.1903V1.37573Z" fill="#CF1C0A"/>
<path d="M12.3309 9.18628H11.2109V10.3007H12.3309V9.18628Z" fill="#CF1C0A"/>
<path d="M11.7684 6.95703H10.6484V8.07147H11.7684V6.95703Z" fill="#CF1C0A"/>
<path d="M13.4598 2.48926H12.3398V3.60369H13.4598V2.48926Z" fill="#CF1C0A"/>
<path d="M15.6981 1.37573H14.5781V2.49017H15.6981V1.37573Z" fill="#CF1C0A"/>
<path d="M12.3309 4.72803H11.2109V5.84246H12.3309V4.72803Z" fill="#CF1C0A"/>
<path d="M17.9403 0.817871H16.8203V1.93231H17.9403V0.817871Z" fill="#CF1C0A"/>
<path d="M4.47938 10.8577H3.35938V11.9721H4.47938V10.8577Z" fill="#CF1C0A"/>
<path d="M6.72937 11.9829H5.60938V13.0973H6.72937V11.9829Z" fill="#CF1C0A"/>
<path d="M1.12 14.2119H0V15.3264H1.12V14.2119Z" fill="#CF1C0A"/>
<path d="M7.85047 14.2119H6.73047V15.3264H7.85047V14.2119Z" fill="#CF1C0A"/>
<path d="M4.47938 17.5547H3.35938V18.6691H4.47938V17.5547Z" fill="#CF1C0A"/>
<path d="M2.23719 16.4392H1.11719V17.5536H2.23719V16.4392Z" fill="#CF1C0A"/>
<path d="M6.72937 16.4392H5.60938V17.5536H6.72937V16.4392Z" fill="#CF1C0A"/>
<path d="M2.23719 11.9829H1.11719V13.0973H2.23719V11.9829Z" fill="#CF1C0A"/>
<path d="M5.60047 1.9314H4.48047V3.04583H5.60047V1.9314Z" fill="#CF1C0A"/>
<path d="M5.60047 5.28589H4.48047V6.40033H5.60047V5.28589Z" fill="#CF1C0A"/>
<path d="M7.29187 3.60474H6.17188V4.71917H7.29187V3.60474Z" fill="#CF1C0A"/>
<path d="M3.92078 3.60474H2.80078V4.71917H3.92078V3.60474Z" fill="#CF1C0A"/>
<path d="M26.9119 20.3513H24.6719V21.4658H26.9119V20.3513Z" fill="#CF1C0A"/>
<path d="M24.5942 15.1696L22.8477 16.9075L23.6396 17.6955L25.3862 15.9576L24.5942 15.1696Z" fill="#CF1C0A"/>
<path d="M19.4375 12.2504L18.0375 15.2554L20.0675 17.7728C20.1275 17.8425 20.1875 17.9619 20.1875 18.1211C20.1875 18.4295 19.9375 18.6783 19.6275 18.6783C19.5475 18.6783 19.4775 18.6584 19.4175 18.6285L19.3675 18.6086C19.2975 18.5688 19.2375 18.529 19.1875 18.4693L16.9475 15.6833C16.8875 15.6136 16.8275 15.4942 16.8275 15.335C16.8275 15.2753 16.8375 15.2156 16.8575 15.1559L18.0375 11.7927L16.9775 11.4245L15.7975 14.7877C15.7375 14.9569 15.7075 15.1459 15.7075 15.325C15.7075 15.7032 15.8375 16.0713 16.0775 16.3698L18.3175 19.1559C18.4575 19.335 18.6475 19.4743 18.8375 19.5838L18.8575 19.5937C18.8975 19.6136 18.9375 19.6335 18.9775 19.6435L20.5175 20.34C21.0075 20.5589 21.3175 21.0465 21.3175 21.5738V27.4346L22.3175 27.7629C22.7275 27.9023 22.9975 28.2804 22.9975 28.7082H20.1975C19.8875 28.7082 19.6375 28.4595 19.6375 28.151V22.1609L15.1475 20.8276V19.2355H14.0275V27.4644C14.0275 28.161 13.4575 28.7182 12.7675 28.7182C12.6775 28.7182 12.5875 28.7082 12.4975 28.6883L5.6775 27.1858L5.0875 28.2107C4.8475 28.5988 4.3875 28.7978 3.9375 28.6684L4.5675 25.8425C4.6375 25.5142 4.9675 25.3152 5.2875 25.3848L11.7875 26.8177V18.1111C11.7875 13.1061 14.9775 9.74291 17.9575 9.74291C18.8875 9.74291 19.6375 10.4892 19.6375 11.4146C19.6375 11.7031 19.5775 11.9817 19.4575 12.2404M19.6375 9.17574C19.6375 8.72797 19.8075 8.31006 20.1275 7.99165L21.2475 6.87721C21.5675 6.5588 21.9875 6.38965 22.4375 6.38965C23.3675 6.38965 24.1175 7.14587 24.1175 8.0613C24.1175 8.50907 23.9375 8.92698 23.6275 9.24539L22.5075 10.3598C22.0275 10.8374 21.2675 10.9568 20.6475 10.6882C20.4875 10.0812 20.1275 9.5638 19.6375 9.18569C19.6375 9.18569 19.6375 9.17574 19.6375 9.16579" fill="white"/>
</g>
<defs>
<clipPath id="clip0_411_24939">
<rect width="29.72" height="29.0152" fill="white" transform="translate(0 0.817871)"/>
</clipPath>
</defs>
</svg>
